<svg id="Layer_1" data-name="Layer 1" xmlns="http://www.w3.org/2000/svg" viewBox="0 0 261.44 261.4"><defs><style>.cls-1{fill:#ff7f00;}.cls-2{fill:#ff0;}.cls-3{fill:green;}.cls-4{fill:blue;}.cls-5{fill:indigo;}.cls-6{fill:#9400d3;}.cls-7{fill:red;}</style></defs><title>Artboard 1</title><path class="cls-1" d="M130.72,130.43,28,50.17C53.29,17.77,89.6.06,130.72.06Z"/><path class="cls-2" d="M130.72,130.43l-127,29.33C-5.57,119.7,2.67,82.57,28,50.17Z"/><path class="cls-3" d="M130.72,130.43,75.62,248.59c-37.27-17.37-62.69-48.77-71.94-88.83Z"/><path class="cls-4" d="M130.72,130.43l57.15,117.18c-37,18-75,18.36-112.25,1Z"/><path class="cls-5" d="M130.72,130.43l127.52,27.11c-8.55,40.22-33.42,72.05-70.37,90.07Z"/><path class="cls-6" d="M130.72,130.43,232,48.39c25.87,32,34.75,68.93,26.2,109.15Z"/><path class="cls-7" d="M130.72,130.43V.06C171.83.06,206.16,16.43,232,48.39Z"/></svg>